<svg xmlns="http://www.w3.org/2000/svg" xmlns:xlink="http://www.w3.org/1999/xlink" width="1920" zoomAndPan="magnify" viewBox="0 0 1440 809.999993" height="1080" preserveAspectRatio="xMidYMid meet" version="1.0"><defs><clipPath id="4802677261"><path d="M 0 591 L 1440 591 L 1440 810 L 0 810 Z M 0 591 " clip-rule="nonzero"/></clipPath><clipPath id="54c535026d"><path d="M 2254.472656 1323.734375 L 1091.988281 2486.214844 L -319.21875 1075.007812 L 843.265625 -87.476562 Z M 2254.472656 1323.734375 " clip-rule="nonzero"/></clipPath><clipPath id="b1b52e87da"><path d="M 2254.472656 1323.734375 L 1091.988281 2486.214844 L -319.21875 1075.007812 L 843.265625 -87.476562 Z M 2254.472656 1323.734375 " clip-rule="nonzero"/></clipPath><clipPath id="8c8d90ce30"><path d="M 2254.183594 1324.023438 L 1092.253906 2485.953125 L -319.113281 1074.582031 L 842.816406 -87.347656 Z M 2254.183594 1324.023438 " clip-rule="nonzero"/></clipPath></defs><g clip-path="url(#4802677261)"><g clip-path="url(#54c535026d)"><g clip-path="url(#b1b52e87da)"><g clip-path="url(#8c8d90ce30)"><path fill="#b6c548" d="M 337.671875 1661.371094 C 225.914062 1610.355469 120.152344 1533.015625 49.894531 1429.605469 C -43.035156 1281.828125 -97.683594 1105.515625 -73.84375 939.523438 C -59.699219 840.050781 -36.769531 779.308594 41.703125 717.691406 C 77.0625 690.960938 116.8125 660.914062 164.9375 661.855469 C 230.105469 667.359375 293.089844 693.898438 354.160156 719.953125 C 402.003906 739.488281 446.773438 768.277344 496.367188 782.253906 C 612.195312 816.695312 732.179688 807.773438 840.417969 771.953125 C 1058.0625 709.554688 1246.8125 513.179688 1495.601562 626.363281 C 1604.199219 671.75 1696.90625 752.9375 1764.976562 849.65625 C 1833.152344 931.050781 1880.402344 1025.867188 1912.675781 1124.511719 C 1956.644531 1253.875 1955.667969 1390.570312 1928.300781 1517.1875 C 1917.160156 1593.015625 1888 1664.136719 1844.648438 1724.769531 C 1809.773438 1767.066406 1774.390625 1813.40625 1723.890625 1838.019531 C 1633.988281 1876.300781 1541.941406 1880.570312 1442.535156 1856.273438 C 1330.8125 1835.820312 1234.105469 1768.96875 1132.007812 1719.390625 C 923.148438 1620.8125 767.804688 1715.613281 566.792969 1710.390625 C 489.652344 1705.941406 410.507812 1695.203125 337.671875 1661.371094 " fill-opacity="1" fill-rule="nonzero"/></g></g></g></g></svg>